M48
;Layer_Color=9474304
;FILE_FORMAT=4:4
METRIC,LZ
;TYPE=PLATED
T1F00S00C0.6000
T2F00S00C0.6500
T3F00S00C0.7000
T4F00S00C0.9000
T5F00S00C1.0000
%
T01
X0191643Y0033274
X0197104Y0038608
X0201422Y0041275
X0206756Y0042291
X0213995Y0042545
X0212986Y00449291
X0213741Y0046609
X0214503Y0054737
X0211328Y0057277
X0209804Y006223
X0211201Y006731
X022467Y00682971
X0222123Y0042545
X0219075
X0228727Y0042164
X0198635Y00481041
X0198501Y0053467
Y006223
X0200533Y0062484
X019431Y0058166
X0194056Y0050292
X0195333Y00455641
X0184411Y00483581
Y00548351
X018161Y0053721
X0176403
X0174371Y0051689
Y0058674
X0156972Y0086995
X0154305Y008711
X0159385Y0086995
X0193421Y0087376
Y0089027
Y0085598
X0201295
Y0087376
Y0089027
T02
X0200946Y0043434
X0202946
X020855Y0043688
X021055
T03
X0202556Y0047879
Y0050419
Y0052959
Y0055499
X0210956
Y0052959
Y0050419
Y0047879
T04
X0153035Y0034925
X0155575
X0158115
Y0037465
X0155575
X0153035
X0160655
X0163195
X0165735
X0168275
X0170815
Y0034925
X0168275
X0165735
X0163195
X0160655
X0175895
X0178435
X0180975
X0183515
X0186055
X0188595
Y0037465
X0186055
X0183515
X0180975
X0178435
X0175895
X0209423Y0035433
X0221869Y0035687
X0217Y004446
Y0047
Y004954
Y0058619
Y0061159
Y0063699
X02111447Y006477
X0207772
X02003983
X0217Y0070866
Y0073406
Y0075946
X0227457Y0076327
Y0073787
Y0071247
X02275Y0063699
Y0061159
Y0058619
Y004953
Y004699
Y004445
X0189738Y0043561
X0182626
Y0073533
X0189738
X01971747Y006477
X0156845Y0080645
Y0083185
X0154305
Y0080645
X0151765
Y0083185
X0149225
Y0080645
X0146685
Y0083185
X0144145
Y0080645
X0159385
X0161925
X0164465
X0167005
Y0083185
X0164465
X0161925
X0159385
X0170815
X0173355
X0175895
X0178435
X0180975
X0183515
X0186055
X0188595
Y0080645
X0186055
X0183515
X0180975
X0178435
X0175895
X0173355
X0170815
X01971747Y0087446
X02111447
X0220345Y0082931
X0222885
X0225425
T05
X0223012Y0046482
Y0051562
M30
